<?xml version="1.0" encoding="UTF-8"?><svg id="Layer_1" xmlns="http://www.w3.org/2000/svg" viewBox="0 0 392.74 389"><path d="M327.35,91.4c3.3,3.86,6.87,13.98,11.06,16.78.93.62,2.3.66,3.39,1.49,1.35,1.03,4.91,4.71,5.57,6.15,1.98,4.35-.3,10.5.93,14.69.31,1.04,1.54,1.86,1.98,2.91,3.11,7.52,6.45,14.92,9.97,22.25,6.74,1.84,16.2,1.59,22.41-2.15,4.36-2.63,3.1-6.04,3.6-10.07,3.42-27.52-.56-55.61-2.04-83.03-.69-12.83.02-24.97-2.14-37.89-.87-5.21-3.35-10.6-9.09-11.41-22.39-3.18-47.41-1.42-70.3-1.95-1.82-.04-3.61-.98-5.79-1.05-28.43-.93-56.74,4.32-84.9.94-8.57-1.03-16.45-2.93-25.52-1.92-8.07.89-5.86,6.5-6.36,12.19-1.19,13.45-2.99,27.42-1.93,41.12.32,4.12,2.7,3.71,6.42,3.4,5.87-.5,13.83-1.98,19.5-2.04,2.84-.03,5.39,2.2,8.77,2.07s7.87-2.94,9.74-2.94c3.51,0,8.48,2.84,11.77,2.95,2.23.07,3.95-1.1,5.84-1.1,4.99-.02,10.03,2.43,16.63,2.04,15.14-.9,32.54-.79,46.6,6.07,8.36,4.08,17.94,13.54,23.9,20.51ZM349.77,389c.12-3.43.24-6.86.33-10.28.6-23.42-2.52-46.94-3-70.28-.17-8.44-.82-20.32.01-28.39,1.02-9.89,10.54-3.98,15.15-8.28,7.33-6.84-.99-11.04-7.77-11.72-21.11-2.1-42.28-1.98-63.51-.98-21.44,1.01-42.13,2.43-63.41,2.98-34.94.9-69.61-.57-104.52.92-17.77.76-35.77-1.28-53.65-1.95-6.02-.23-13.91.84-19.53,0-4.47-.67-6.62-6.18-12.19-2.36-4.56,3.13-4.68,7.31-3.92,12.61,1.23,8.51,11.65,2.74,13.47,8.99.69,2.37,1.92,9.87,2.14,12.5,1.66,19.26-.01,40.7,1.9,59.61.28,2.8,1.72,4.96,2.01,7.76.9,8.85.64,18.89.31,28.89h-6.24c-.52-30.52-1.11-61.03-3.89-91.32-.36-3.89.53-12.78-3.56-14.99-2.14-1.16-6.99-1.61-8.86-3.34-6.46-5.99-3.77-28.14,7.06-27.99,1.02.01,2.03.8,3.05.85,1.13.06,2.08-.56,2.85-.55.72.01,7.51,5.02,6.31,1.09-1.34-4.38-6.3-10.85-7.6-15.83-2.18-11.2-4.09-23.05-7.19-33.82-.45-1.57-4.96-6.1-6.2-9.43-2.23-6-3.03-13.7-4.82-19.59-3.26-10.67-10.35-24.23-12.19-34.67-2.06-11.68-3.62-21.07-10.62-31.36-.43-9.05-2.91-18.03-.95-26.95.72-3.28,2.86-6.94,3.49-10.18.42-2.17-.05-4.33.39-6.45,3.66-17.68,17.07-24.01,27.67-35.79,3.44-3.82,10.54-14.83,15.09-16.23,2.54-.78,9.19,1.52,10.81,3.94,1.99,2.99-.08,4.23-.04,7.37,3.35-.21,6.96.3,10.27.03,4.34-.36,15.62-2.17,18.56-4.87,5.18-4.76,2.74-5.17,10.91-8.62,2.26-.95,2.85-3.12,6.47-2.01,1.47.45,9.23,8.92,9.89,10.62.8,2.08.07,4.46,1.91,5.9,1.53,1.2,5.23,1.41,7.73,3.01,6.08,3.88,7.91,4.34,14.3,7.18,10.09,4.48,21.7,12.46,30.25,19.58,1.38,1.15.4,3.24,3.92,2.39-.89-3.17,1.04-6.64,1.04-9.28,0-1.61-.97-3.14-1.07-4.85-.41-7.43,1.53-15.11,2.01-22.46.28-4.34-.67-8.96.45-13.21,6.63-7.7,16.93-7.59,26.41-6.87,8.93.68,18.55,3.61,28.23,3.99,12.81.51,26.69-2.77,39.13-2.02,32.71,1.95,67.94-1.76,100.46,2.05,2.3.27,11.64,2.78,13.03,4.07,1.61,1.5,4.43,8.82,4.9,11.2,3.95,19.76,4.49,45.8,5.11,66.16.58,19.04,1.82,48.4-2,66.39-1.15,5.39-11.22,8.67-16.15,9.23-2.76.31-12.21-1.07-13,1.65-.6,8.36.4,16.97-.09,25.3-.51,8.77-2.4,18.39-2.98,27.29-.24,3.74.53,8.16,0,11.71-.48,3.2-5.35,9.52-6.37,14.13-.51,2.29-.04,5.24-.89,6.92-.7,1.37-5.35,3.24-5.39,4.37-.09,2.81,6.13.43,7.31.42,2.66,0,10.11,1.85,12.48,3.21,5.11,2.94,7.08,9.16,5.43,14.76-.21.69-4.38,5.06-5.16,5.58-3.72,2.48-11.24.81-12.78,3.86-1.05,1.73.5,3.44.56,5.35.34,10.09-.36,20.25-.08,30.34.7,24.52,2.83,48.29,2.27,72.75h-5.46ZM330.72,389c.19-6.48.29-12.93-.16-19.12-.82-11.29-2.54-22.78-2.98-34.12-.22-5.66.63-12.2.07-17.65-.15-1.51-.18-2.97-1.99-3.37l-1.07,8.7c-6.25.12-9.13,13.2-8.72,18.18.81,9.98-1.52,17.05-.98,26.36.27,4.68.97,15.31,1.79,21.02h-35.06c-.02-.12-.05-.25-.08-.37-.44-1.95-2.43-3.12-2.75-5.06-1.72-10.5-.48-20.8.02-31.21.23-4.78-.76-11.28-.02-15.64.42-2.49,5.88-10.94,6.7-13.87.68-2.42-1.75-7.25-.4-12.05.94-3.31,4.82-5.9,5.26-7.44,1.31-4.62-.65-10.19,5.07-13.48.08-1.96,4.16-5.85,3.87-6.86-.77-2.73-5.26-.34-7.31-.42-4.44-.18-6.31-.18-10.73-.05-8.74.26-17.54-.21-26.29-.07-1.97.28-1.7,10.2-1.59,12.28.25,4.97.19,6.8,0,11.66-1.05,27.59-.52,55.06.13,82.59h-6.05c-.59-24.19-.73-48.16.06-72.82.32-10.03-.09-20.48.94-30.3.25-2.38-.43-7.4,1.23-9.02.56-.54,4.97-1.92,5.96-1.88,5.42.21,12.18,2.29,17.74,2.7,4.48.33,9.3-1.23,14.6-.94,9.49.52,19.96-.08,29.38.88,2.59.26,4.93,1.88,6.88,1.98,1.68.09,3.39-1.3,4.73-.95,2.45.64,1.28,5.39,1.52,7.32,3.59,28.38,3.97,60.9,4.89,89.82.14,4.34.44,8.8.68,13.21h-5.35Z"/><path d="M67.85,389,70.83,389h-2.99c0-1.16,0-2.32,0-3.48,0-30.59,3.93-67.53,1.08-97.67-.38-3.98-5.02-8.05,1.38-10.2l161.44,1.16c.77.81,2.03,5.67,2.17,7.1,1.11,11.07-.32,24.72-.07,36.2.42,19.4,1.22,39.14,1.97,58.56.11,2.77.21,5.55.3,8.33h-5.31c-.1-8.94-.33-17.92-.89-26.84-1.44-23.04,1.11-48.56-.89-71.36-.18-2.1-.97-4.28-1.48-6.33-1.64-2.59-9.69-2.12-12.73-1.97-1.67.08-3.17.98-4.83,1.03-11.22.35-22.67-.68-33.77.41l-.81,1.15c-.43,12,.17,24.03-.09,36.04-.26,12.15-.54,24.83-.98,37.1-.37,10.26-.39,20.52-.16,30.79h-5.26c-.51-27.58-.46-55.2-.49-82.53,0-4.89-.16-9.84-.02-14.72.13-4.44,2.92-8.05-4.53-9.08-3.46-.48-1.34,3.53-1.25,5.19.56,10.82-1.09,17.35-1.92,27.43-1.64,19.92-2.49,39.71-3.02,59.46-.13,4.71-.24,9.47-.33,14.24h-5.34c.4-17.47,1.29-34.91,2.79-52.27.51-5.95-.6-12.67-.04-18.59.42-4.52,2.61-9.83,2.98-14.6.22-2.85.36-17.95-1.09-18.97-4.79.66-9.58-.93-14.02-1.11-11.43-.46-23.94.9-35.17,1.05-10.58.14-21.36-.53-31.81.4l-.81,1.15c-.67,19.8.49,39.69-.07,59.49-.4,14.19-.48,28.66-.02,42.89,0,.19.01.38.02.57h-3.95"/></svg>