<?xml version="1.0" encoding="UTF-8"?><svg id="Layer_1" xmlns="http://www.w3.org/2000/svg" viewBox="0 0 13.78 13.45"><path d="M13.78,13.45H1.2c-.18-.97-.41-1.81-1.02-2.72-.05-.97-.31-1.93-.1-2.89.08-.35.31-.74.37-1.09.05-.23,0-.46.04-.69.39-1.9,1.83-2.58,2.97-3.84.37-.41,1.13-1.59,1.62-1.74.27-.08.99.16,1.16.42.21.32,0,.45,0,.79.36-.02.75.03,1.1,0,.47-.04,1.68-.23,1.99-.52.56-.51.29-.56,1.17-.92.24-.1.31-.33.69-.22.16.05.99.96,1.06,1.14.09.22,0,.48.2.63.16.13.56.15.83.32.19.12.35.21.48.29v11.03Z"/></svg>