<?xml version="1.0" encoding="UTF-8"?><svg id="Layer_1" xmlns="http://www.w3.org/2000/svg" viewBox="0 0 444.65 632.33"><path d="M183.05,525.37c-2.51.67-.53,3.44-.61,4.5-1.33,18.84,1.6,38.91,2.13,57.97.27,9.52.89,22.87,0,32.05-.81,8.38-12.1,18.51-17.9,7.85-2.49-4.57-1.53-11.99-4.08-16.92,1.28-11.93-1.32-23.47-2.08-34.92-1.11-16.65,1.73-33.92-1.11-50.38-3.32-1.88-6.93-.77-10.39-1.12-16.8-1.7-32.99-5.1-50-4.06-5.6.34-11.8,2.35-17.04,2.96-2.78.32-10.79-.77-11.99,1.01-1.13,1.69-.21,7.96-.42,10.58-2.03,25.66,1.85,51.42-1.1,76.9-.26,2.25-2.89,12.1-4.14,13.35-.54.55-2.46,1.06-3.33,1.16-7.26.87-10.55-1.25-11.39-8.52-3.44-29.62-2.37-60.2-1.1-89.95.84-19.61,3.04-38.37,2-57.95-2.91-54.94-.99-110.31-6-165-.37-3.99.55-13.09-3.64-15.36-2.19-1.19-7.16-1.65-9.08-3.43-6.62-6.14-3.86-28.82,7.24-28.66,1.04.01,2.08.82,3.12.87,1.16.06,2.13-.57,2.92-.56.74.01,7.69,5.14,6.46,1.12-1.37-4.48-6.46-11.12-7.79-16.22-2.23-11.47-4.19-23.61-7.36-34.64-.46-1.61-5.08-6.25-6.35-9.65-2.28-6.14-3.1-14.03-4.94-20.06-3.34-10.93-10.6-24.82-12.49-35.51-2.11-11.97-3.7-21.58-10.88-32.12-.44-9.27-2.98-18.46-.98-27.6.74-3.36,2.93-7.11,3.58-10.42.43-2.22-.05-4.43.4-6.6,3.75-18.11,17.48-24.59,28.34-36.66,3.52-3.92,10.8-15.18,15.45-16.62,2.6-.8,9.41,1.55,11.07,4.04,2.04,3.06-.08,4.34-.05,7.55,3.44-.22,7.13.31,10.52.03,4.44-.37,15.99-2.22,19.01-4.99,5.31-4.88,2.8-5.3,11.17-8.83,2.31-.97,2.92-3.19,6.63-2.06,1.51.46,9.46,9.13,10.13,10.88.82,2.13.08,4.57,1.96,6.04,1.57,1.23,5.35,1.44,7.92,3.08,6.22,3.97,8.11,4.45,14.65,7.35,10.33,4.59,22.23,12.76,30.99,20.06,1.42,1.18.41,3.32,4.01,2.44-.91-3.25,1.07-6.8,1.07-9.5,0-1.65-.99-3.22-1.09-4.97-.42-7.61,1.57-15.47,2.05-23,.29-4.44-.68-9.17.47-13.53,6.79-7.89,17.34-7.78,27.05-7.04,9.14.7,19,3.7,28.91,4.09,13.12.52,27.33-2.83,40.07-2.07,33.5,2,69.59-1.8,102.9,2.1,2.36.28,11.92,2.85,13.34,4.17,1.65,1.53,4.54,9.04,5.02,11.47,4.05,20.24,4.6,46.91,5.24,67.76.59,19.51,1.87,49.57-2.05,68-1.18,5.53-11.49,8.88-16.54,9.46-2.83.32-12.51-1.1-13.31,1.69-.61,8.56.41,17.38-.09,25.91-.52,8.98-2.46,18.84-3.05,27.95-.25,3.83.54,8.35,0,12-.49,3.27-5.48,9.75-6.53,14.47-.52,2.35-.04,5.37-.92,7.08-.72,1.41-5.48,3.32-5.52,4.47-.1,2.88,6.28.44,7.49.43,2.73,0,10.36,1.9,12.78,3.29,5.24,3.01,7.26,9.38,5.56,15.12-.21.71-4.49,5.18-5.29,5.71-3.81,2.54-11.51.83-13.09,3.95-1.08,1.77.51,3.52.58,5.48.35,10.33-.37,20.74-.08,31.07.79,27.6,3.35,54.28,2.07,81.98-.59,12.85-1.65,29.08.03,41.92.6,4.58,5.07,8.34,3.95,13.55,7.51-1.46,8.05,6.36,15.5,5,1.8-.33,2.53-1.97,4.98-2.09,2.65-.13,4.83,1.39,7.94,1.07,5.03-.52,12-5.2,18.14-5.9,4.05-.46,11.9-.51,15.96-.1,3.68.37,7.44,2.55,11.5,2.5,2.79,2.41,3.88,5.99,2.45,9.5-.72,1.77-5.52,8.76-6.94,10.06-2.32,2.13-6.17,2.65-8.88,4.12-4.52,2.46-7.91,7.13-12.38,9.62-7.79,4.36-15.25,5.98-23.76,7.24-1.86.28-3.15,1.66-5.04,1.95-6.75,1.06-11.16-2.73-17.48-2.98.18,5.15-.25,10.37-.03,15.53.72,16.82,1.31,29.86,1,46.95-.26,14.32,1.85,34.64-1.01,47.99-1.13,5.27-5.41,9.35-10.67,10.39-4.78.95-13.55-6.96-14.29-11.36-.63-3.76.3-8.96.02-13.02-.88-12.84-2.38-23.76-2.05-37,.45-18,.75-34.89,0-52.95-.21-5.12,1.33-19.93-1.97-23.03-2.2-2.08-8.49-3.56-11.53-6.47-1.98-1.9-2.97-5.16-4.95-7.05-1.73-1.65-4.96-2.64-6.56-4.44-2.13-2.4-2.56-6.84-4.12-9.88-2.53-4.91-7.19-7.3-10.26-12.74-4.77-8.45-7.11-12.84-8.63-22.37-.8-5.03-3.51-5.38-4.72-8.28-2.15-5.16-.29-10.67-1.41-15.59-.45-1.99-2.49-3.19-2.81-5.19-1.76-10.75-.5-21.3.02-31.97.24-4.89-.78-11.56-.02-16.02.43-2.55,6.02-11.2,6.86-14.21.69-2.48-1.8-7.43-.41-12.34.96-3.39,4.94-6.04,5.38-7.62,1.34-4.73-.66-10.44,5.19-13.81.08-2.01,4.26-6,3.97-7.03-.79-2.8-5.38-.35-7.48-.43-4.55-.19-6.46-.18-10.99-.05-8.95.27-17.97-.21-26.92-.08-2.02.29-1.74,10.45-1.63,12.58.26,5.09.19,6.97,0,11.95-2.06,54.05,1.83,107.65,1.05,162.05-.24,16.86-1.51,34.22-1,50.95.92,30.16,1.73,65.6-3.03,95.03-1,6.18-12.7,15.53-15.8,3.8-3.35-12.7-2.26-26.85-2.17-39.78.11-15.15.85-30.12-.06-45-.18-2.93,1.21-15.53-2.47-15.53h-53ZM335.28,93.62c3.38,3.95,7.04,14.32,11.33,17.19.95.64,2.36.68,3.47,1.53,1.38,1.06,5.03,4.82,5.7,6.3,2.03,4.46-.31,10.75.95,15.05.31,1.07,1.58,1.91,2.02,2.98,3.19,7.71,6.6,15.28,10.21,22.79,6.91,1.88,16.59,1.63,22.95-2.2,4.47-2.69,3.18-6.19,3.69-10.31,3.51-28.19-.57-56.96-2.09-85.04-.71-13.14.02-25.58-2.19-38.81-.89-5.33-3.43-10.86-9.31-11.69-22.93-3.25-48.56-1.46-72-2-1.87-.04-3.7-1-5.93-1.07-29.12-.95-58.11,4.43-86.96.96-8.77-1.05-16.84-3-26.14-1.97-8.26.92-6,6.65-6.52,12.48-1.22,13.77-3.06,28.08-1.97,42.11.33,4.22,2.76,3.8,6.57,3.48,6.01-.51,14.17-2.03,19.97-2.09,2.9-.03,5.52,2.25,8.99,2.12s8.06-3.01,9.98-3.01c3.59,0,8.68,2.91,12.05,3.02,2.29.08,4.05-1.13,5.98-1.13,5.11-.02,10.28,2.49,17.03,2.09,15.5-.92,33.33-.81,47.73,6.22,8.56,4.18,18.37,13.87,24.48,21.01ZM255.75,283.56c.57-.55,5.09-1.97,6.11-1.93,5.56.22,12.47,2.34,18.17,2.76,4.59.34,9.52-1.26,14.95-.96,9.72.54,20.45-.08,30.1.9,2.65.27,5.05,1.93,7.04,2.03,1.72.09,3.47-1.33,4.84-.97,2.51.65,1.31,5.52,1.56,7.5,3.68,29.07,4.07,62.38,5,92,.24,7.57.96,15.47,1.06,22.95.18,13.72-.92,27.61-.97,41.06,0,2.3,3.23,5.72,3.75,8.16,2.27,10.63-.2,26.34.17,37.83.06,1.91,1.02,3.69,1.07,5.93.74,33.77-2.81,72.07,1.03,104.97.58,4.96,5.3,13.02,10.95,10.09,4.18-2.16,3.59-13.88,3.95-18.05,3.01-35.61.81-69.56-2-104.95-1.22-15.36,2.18-25.18-3.72-40.28-1.78-4.54-1.19-13.44-1.29-18.72-.27-15.46.67-30.75,1.06-46,.61-23.99-2.58-48.07-3.07-71.98-.18-8.65-.84-20.81.01-29.08,1.05-10.13,10.79-4.08,15.52-8.48,7.51-7-1.02-11.31-7.96-12-21.62-2.15-43.3-2.02-65.05-1s-43.15,2.49-64.95,3.05c-35.79.93-71.29-.58-107.05.95-18.2.78-36.63-1.31-54.95-2-6.17-.23-14.25.86-20,0-4.58-.69-6.78-6.33-12.48-2.42-4.68,3.2-4.8,7.49-4.01,12.92,1.26,8.71,11.93,2.81,13.79,9.21.71,2.43,1.96,10.11,2.2,12.8,1.7,19.73-.01,41.68,1.95,61.05.29,2.87,1.76,5.08,2.05,7.95,1.64,16.19-.49,36.28-.07,53.07.28,11.11,1.79,22.85,2.07,33.93,1.31,51.09-8.9,103.86-2.1,154.1.67,4.93-1.4,14.58,6.61,9.46.42-4.17,2.13-8.36,2.49-12.51,1.8-21.25-.73-42.8,0-64,.2-5.86-.57-12.38-.08-18.08.81-9.46,17.69-7.81,24.48-8.52,17.42-1.82,26.75-2.23,44.1.04,6.95.91,18.51,3.42,24.96,3.11,6.45-.31,5.79.45,10.97.96,3.83.37,6.58-.97,10-1.08,18.69-.62,40.61-.78,59.02,1.07,2.12.21,4.4-.18,6.53-.03.12,1.82-.2,3.71-.03,5.53.35,3.74.95,8.26,1.06,11.95.75,24.36-2.94,49.98-1.06,74.05.18,2.32,1.6,10.82,2.51,12.49.81,1.48,1.14.85,2.04,0,2.56-2.43,3.87-9.95,4.42-13.59,4.94-33.03-.04-67,1.09-99.91.9-26.09,1.88-52.04.95-78-1.32-36.77-2.19-72.16-1-109.05.33-10.27-.09-20.98.96-31.04.25-2.43-.44-7.58,1.26-9.24ZM339.54,434.37c.8-4.32-.86-8.43-1.04-12.45-.63-14.06,1.08-29.17.07-43.07-.84-11.56-2.6-23.33-3.05-34.95-.23-5.8.64-12.49.07-18.07-.16-1.54-.18-3.04-2.04-3.45l-1.09,8.91c-6.41.12-9.35,13.52-8.93,18.62.83,10.23-1.56,17.46-1,27,.32,5.51,1.22,19.07,2.22,23.78.44,2.07,2.58,4.5,3.31,6.69,2.72,8.09,3.34,11.68,7.37,19.63,1.25,2.47,1.37,6.14,4.12,7.37ZM165.55,525.37c.77,15.22-1.03,31.41-.03,46.52.26,3.92,1.79,9.03,2.05,12.95.77,11.59-.28,23.29,2.19,34.81.89,4.17,3.07,9.48,7.27,4.69,2.48-2.83,1.17-7.11,1.49-10.51,2.26-23.91-.69-45.31-2-68.94-.32-5.83.67-11.88-.42-17.58l-10.55-1.94Z"/><path d="M237.35,285.56c.79.83,2.08,5.8,2.23,7.27,1.13,11.34-.33,25.32-.07,37.07.43,19.87,1.25,40.09,2.02,59.98,1.13,29.17,1.23,59.5,2.05,88.95.1,3.59.5,21.94-.49,23.56-1.38,2.24-5,.22-5.38-1.65-.18-.9.99-3.04.93-4.87-.06-1.67-1.03-3.25-1.11-4.99-.8-19.72-.67-39.25-.92-59.07-.25-19.92.15-40.55-1.12-60.89-1.47-23.6,1.14-49.74-.91-73.09-.19-2.15-.99-4.39-1.51-6.49-1.68-2.66-9.92-2.18-13.04-2.02-1.71.09-3.25,1-4.95,1.05-11.49.36-23.22-.69-34.58.42l-.83,1.17c-.44,12.29.17,24.62-.09,36.91s-.55,25.43-1,38c-1.37,38.3,1.99,76.68,5,114.95.21,2.72-.73,9.95.41,11.59,16.16,4.45,33.24,2.39,49.93,3.07,1.72.99,3.39,4.13,2.16,5.9-1.64,2.37-5.74.06-8.01-.06-8.41-.45-16.62-.43-25-1-16.89-1.15-33.39-2.7-50-4-21.73-1.7-43.5,2.84-65,4.05-2.12.12-4.93.2-6.98-.08-1.06-.14-8.04-2.11-8.56-2.44-3.56-2.24-1.04-7.81-.94-10.97.09-2.93.11-6.15-.02-9.07-1.21-27.54-2.08-56.47-2.09-83.97,0-31.33,4.03-69.16,1.1-100.04-.39-4.08-5.14-8.25,1.41-10.45l165.35,1.18ZM77.64,493.27c1.45.46,2.82.98,4.37,1.13,7.75.73,13.99-.65,21.01-1.06,8.81-.51,17.55-1.22,25.98-.93,9.02.31,17.82-.58,27.07-.08,6.15.33,10.31.08,15.97.12,1.67.01,4.44,2.32,5.38-.72.65-2.07.31-11.07.15-13.91-.25-4.51-1.76-10.41-2.05-14.95-3.15-49.37-2.95-99.65-3-149,0-5-.17-10.08-.02-15.07.13-4.54,2.99-8.25-4.64-9.3-3.54-.49-1.37,3.61-1.28,5.32.58,11.08-1.11,17.77-1.96,28.1-1.68,20.41-2.55,40.67-3.1,60.9-.48,17.89-.81,36.42.05,54,.73,14.96.13,30.12.94,45.06.13,2.46,2.93,7.21-1.47,7.54-9.64.73-1.51-14.17-4.53-19.54-1.73-42.08-1.54-84.25,2.06-126,.53-6.1-.61-12.98-.04-19.04.43-4.63,2.67-10.07,3.05-14.95.23-2.92.36-18.38-1.12-19.43-4.91.67-9.81-.96-14.36-1.14-11.71-.47-24.52.92-36.02,1.08-10.84.15-21.88-.54-32.58.41l-.83,1.17c-.69,20.28.5,40.65-.07,60.93-.41,14.54-.49,29.35-.02,43.93.8,24.98.07,50.07,1,75,.25,6.79-.32,13.65.07,20.43Z"/></svg>