<?xml version="1.0" encoding="UTF-8"?><svg id="Layer_1" xmlns="http://www.w3.org/2000/svg" viewBox="0 0 248.38 38.27"><defs><style>.cls-1{fill:#6000ea;}</style></defs><path class="cls-1" d="M0,30.33h9.07V7.94H0V.85h18.14v10.06h.57c.33-1.28.79-2.53,1.38-3.75.59-1.21,1.35-2.28,2.27-3.21.92-.93,2.04-1.68,3.37-2.25,1.32-.57,2.91-.86,4.75-.86h3.97v8.5h-7.51c-2.74,0-4.89.81-6.45,2.42-1.56,1.61-2.34,3.67-2.34,6.19v12.37h12.69v7.09H0v-7.09Z"/><path class="cls-1" d="M59.17,38.27c-2.79,0-5.28-.45-7.48-1.35-2.2-.9-4.06-2.17-5.6-3.83-1.54-1.65-2.72-3.66-3.54-6.02-.83-2.36-1.24-5.01-1.24-7.94s.41-5.57,1.24-7.94c.83-2.36,2.01-4.37,3.54-6.02,1.53-1.65,3.4-2.93,5.6-3.83,2.2-.9,4.69-1.35,7.48-1.35s5.22.45,7.44,1.35c2.22.9,4.1,2.17,5.63,3.83,1.53,1.65,2.72,3.66,3.54,6.02.83,2.36,1.24,5.01,1.24,7.94s-.41,5.58-1.24,7.94c-.83,2.36-2.01,4.37-3.54,6.02-1.54,1.65-3.41,2.93-5.63,3.83-2.22.9-4.7,1.35-7.44,1.35ZM59.17,31.32c2.6,0,4.65-.79,6.17-2.37,1.51-1.58,2.27-3.91,2.27-6.98v-5.67c0-3.07-.76-5.4-2.27-6.98-1.51-1.58-3.57-2.37-6.17-2.37s-4.65.79-6.17,2.37c-1.51,1.58-2.27,3.91-2.27,6.98v5.67c0,3.07.76,5.4,2.27,6.98,1.51,1.58,3.57,2.37,6.17,2.37Z"/><path class="cls-1" d="M86.46,37.42V.85h9.07v6.45h.35c.8-1.98,2.04-3.7,3.72-5.14,1.68-1.44,4-2.16,6.98-2.16,3.59,0,6.51,1.19,8.75,3.58,2.24,2.39,3.37,5.8,3.37,10.24v23.6h-9.07V15.04c0-5.3-2.29-7.96-6.87-7.96-.95,0-1.84.12-2.69.36-.85.24-1.62.6-2.3,1.1-.69.5-1.23,1.1-1.63,1.81-.4.71-.6,1.56-.6,2.56v24.51h-9.07Z"/><path class="cls-1" d="M129.68,30.33h9.07V7.94h-9.07V.85h18.14v10.06h.57c.33-1.28.79-2.53,1.38-3.75.59-1.21,1.35-2.28,2.27-3.21.92-.93,2.04-1.68,3.37-2.25,1.32-.57,2.91-.86,4.75-.86h3.97v8.5h-7.51c-2.74,0-4.89.81-6.45,2.42-1.56,1.61-2.34,3.67-2.34,6.19v12.37h12.69v7.09h-30.83v-7.09Z"/><path class="cls-1" d="M188.86,38.27c-2.79,0-5.28-.45-7.48-1.35-2.2-.9-4.06-2.17-5.6-3.83-1.54-1.65-2.72-3.66-3.54-6.02-.83-2.36-1.24-5.01-1.24-7.94s.41-5.57,1.24-7.94c.83-2.36,2.01-4.37,3.54-6.02,1.54-1.65,3.4-2.93,5.6-3.83,2.2-.9,4.69-1.35,7.48-1.35s5.22.45,7.44,1.35c2.22.9,4.1,2.17,5.63,3.83,1.53,1.65,2.72,3.66,3.54,6.02.83,2.36,1.24,5.01,1.24,7.94s-.41,5.58-1.24,7.94c-.83,2.36-2.01,4.37-3.54,6.02-1.54,1.65-3.41,2.93-5.63,3.83-2.22.9-4.7,1.35-7.44,1.35ZM188.86,31.32c2.6,0,4.65-.79,6.17-2.37,1.51-1.58,2.27-3.91,2.27-6.98v-5.67c0-3.07-.76-5.4-2.27-6.98-1.51-1.58-3.57-2.37-6.17-2.37s-4.65.79-6.17,2.37c-1.51,1.58-2.27,3.91-2.27,6.98v5.67c0,3.07.75,5.4,2.27,6.98,1.51,1.58,3.57,2.37,6.17,2.37Z"/><path class="cls-1" d="M216.14,37.42V.85h9.07v6.45h.35c.8-1.98,2.04-3.7,3.72-5.14,1.68-1.44,4-2.16,6.98-2.16,3.59,0,6.51,1.19,8.75,3.58,2.24,2.39,3.37,5.8,3.37,10.24v23.6h-9.07V15.04c0-5.3-2.29-7.96-6.87-7.96-.95,0-1.84.12-2.69.36-.85.24-1.62.6-2.3,1.1-.69.5-1.23,1.1-1.63,1.81-.4.71-.6,1.56-.6,2.56v24.51h-9.07Z"/></svg>